<?xml version="1.0" encoding="UTF-8" standalone="no"?>
<svg
   version="1.1"
   width="155"
   height="155"
   viewBox="0 0 155 155"
   id="svg2"
   sodipodi:docname="goldfinch-high-resolution-logo-transparent-2.svg"
   inkscape:version="1.4 (e7c3feb1, 2024-10-09)"
   xmlns:inkscape="http://www.inkscape.org/namespaces/inkscape"
   xmlns:sodipodi="http://sodipodi.sourceforge.net/DTD/sodipodi-0.dtd"
   xmlns="http://www.w3.org/2000/svg"
   xmlns:svg="http://www.w3.org/2000/svg">
  <defs
     id="defs2" />
  <sodipodi:namedview
     id="namedview2"
     pagecolor="#505050"
     bordercolor="#eeeeee"
     borderopacity="1"
     inkscape:showpageshadow="0"
     inkscape:pageopacity="0"
     inkscape:pagecheckerboard="0"
     inkscape:deskcolor="#505050"
     inkscape:clip-to-page="false"
     inkscape:zoom="0.39137886"
     inkscape:cx="60.044121"
     inkscape:cy="228.67868"
     inkscape:window-width="1696"
     inkscape:window-height="772"
     inkscape:window-x="682"
     inkscape:window-y="359"
     inkscape:window-maximized="0"
     inkscape:current-layer="g2" />
  <g
     id="g2"
     transform="translate(-922.5)">
    <svg
       xml:space="preserve"
       width="2000"
       height="155"
       data-version="2"
       data-id="lg_XoNTP8uasvUBcNoI1b"
       viewBox="0 0 155 155"
       x="0"
       y="0"
       version="1.1"
       id="svg1"><rect
         width="100%"
         height="100%"
         fill="transparent"
         id="rect1"
         x="0"
         y="0" /><circle
         r="84.150002"
         fill="none"
         stroke="#581fb2"
         stroke-width="6"
         transform="matrix(0.87,0,0,0.87,77.5,77.5)"
         id="circle1"
         cx="0"
         cy="0" /><path
         fill="#581fb2"
         d="m 117,31.922 c 0,0 -4.945,-9.537 -15.953,-8.865 -9.654,0.593 -14.095,7.176 -17.576,13.124 -2.28,3.89 -8.669,13.19 -11.779,16.422 -4.315,4.498 -7.666,9.866 -10.753,14.026 -2.672,3.599 -9.188,13.33 -12.777,20.01 -3.584,6.68 -10.695,18.88 -10.695,18.88 0,0 1.208,-0.938 2.82,-2.279 1.605,-1.34 7.241,-6.3 7.241,-6.3 0,0 -3.62,9.652 -5.1,11.126 -1.47,1.48 -6.97,9.663 -9.25,11.673 -2.284,2.013 -3.354,6.301 -2.82,7.245 0.537,0.933 5.37,-2.283 6.173,-1.615 0.804,0.671 0.335,6.358 1.98,6.602 1.64,0.241 5.26,-4.858 7.946,-8.88 2.685,-4.022 4.29,-10.196 5.363,-11.265 1.072,-1.073 9.251,-8.584 11.534,-9.121 2.283,-0.536 23.072,-1.207 32.858,-8.179 9.798,-6.978 16.89,-18.111 18.78,-29.777 1.613,-9.923 -1.072,-13.277 -1.337,-16.899 -0.273,-3.622 2.274,-7.914 2.274,-7.914 l 8.85,-2.28 z"
         id="path1" /></svg>
  </g>
</svg>
