<?xml version="1.0" encoding="UTF-8" standalone="no"?>
<svg
   version="1.1"
   width="694"
   height="155"
   viewBox="0 0 694 155"
   id="svg11"
   sodipodi:docname="goldfinch-high-resolution-logo-transparent.svg"
   inkscape:version="1.4 (e7c3feb1, 2024-10-09)"
   xmlns:inkscape="http://www.inkscape.org/namespaces/inkscape"
   xmlns:sodipodi="http://sodipodi.sourceforge.net/DTD/sodipodi-0.dtd"
   xmlns="http://www.w3.org/2000/svg"
   xmlns:svg="http://www.w3.org/2000/svg">
  <defs
     id="defs11" />
  <sodipodi:namedview
     id="namedview11"
     pagecolor="#505050"
     bordercolor="#eeeeee"
     borderopacity="1"
     inkscape:showpageshadow="0"
     inkscape:pageopacity="0"
     inkscape:pagecheckerboard="0"
     inkscape:deskcolor="#505050"
     inkscape:zoom="0.48"
     inkscape:cx="223.95833"
     inkscape:cy="172.91667"
     inkscape:window-width="2160"
     inkscape:window-height="847"
     inkscape:window-x="273"
     inkscape:window-y="323"
     inkscape:window-maximized="0"
     inkscape:current-layer="svg11" />
  <g
     id="g11"
     transform="translate(-652.08333,2.0833333)">
    <svg
       xml:space="preserve"
       width="2000"
       height="155"
       data-version="2"
       data-id="lg_XoNTP8uasvUBcNoI1b"
       viewBox="0 0 694 155"
       x="0"
       y="0"
       version="1.1"
       id="svg10"><rect
         width="100%"
         height="100%"
         fill="transparent"
         id="rect1"
         x="0"
         y="0" /><circle
         r="84.150002"
         fill="none"
         stroke="#581fb2"
         stroke-width="6"
         transform="matrix(0.87,0,0,0.87,82.85,77.5)"
         id="circle1"
         cx="0"
         cy="0" /><path
         fill="#581fb2"
         d="m 122.348,31.922 c 0,0 -4.946,-9.537 -15.954,-8.865 -9.654,0.593 -14.095,7.176 -17.576,13.124 -2.28,3.89 -8.669,13.19 -11.779,16.422 -4.315,4.498 -7.666,9.866 -10.753,14.026 -2.672,3.599 -9.188,13.33 -12.777,20.01 -3.584,6.68 -10.695,18.88 -10.695,18.88 0,0 1.208,-0.938 2.82,-2.279 1.605,-1.34 7.241,-6.3 7.241,-6.3 0,0 -3.62,9.652 -5.1,11.126 -1.47,1.48 -6.97,9.663 -9.25,11.673 -2.284,2.013 -3.354,6.301 -2.82,7.245 0.537,0.933 5.37,-2.283 6.173,-1.615 0.804,0.671 0.335,6.358 1.98,6.602 1.64,0.241 5.26,-4.858 7.946,-8.88 2.685,-4.022 4.29,-10.196 5.363,-11.265 1.072,-1.073 9.251,-8.584 11.534,-9.121 2.283,-0.536 23.072,-1.207 32.858,-8.179 9.798,-6.978 16.89,-18.111 18.78,-29.777 1.613,-9.923 -1.072,-13.277 -1.337,-16.899 -0.273,-3.622 2.274,-7.914 2.274,-7.914 l 8.85,-2.28 z M 268.669,68.19 v 32.53 q -2.2,2.41 -4.93,4.52 -2.72,2.11 -5.99,3.64 -3.26,1.52 -7.11,2.41 -3.85,0.88 -8.3,0.88 -7.7,0 -13.85,-3.35 -6.15,-3.34 -10.46,-9.06 -4.31,-5.73 -6.58,-13.38 -2.28,-7.65 -2.28,-16.32 0,-8.07 2.06,-15.32 2.06,-7.25 6.32,-12.74 4.25,-5.48 10.72,-8.69 6.48,-3.21 15.31,-3.21 6.15,0 11.63,1.95 5.49,1.96 9.34,5.65 l -4.82,5.72 q -2.57,-1.71 -6.44,-2.99 -3.88,-1.29 -8.86,-1.29 -6.53,0 -11.07,2.46 -4.55,2.46 -7.44,6.66 -2.89,4.2 -4.2,9.79 -1.31,5.59 -1.31,11.85 0,3.7 0.59,7.57 0.59,3.88 1.79,7.57 1.2,3.7 3.1,6.96 1.9,3.26 4.5,5.72 2.59,2.46 5.91,3.91 3.32,1.44 7.44,1.44 2.4,0 4.65,-0.5 2.25,-0.51 4.17,-1.32 1.93,-0.8 3.45,-1.79 1.53,-0.99 2.49,-2 V 76.75 l -16.58,-1.07 v -7.49 z"
         id="path1" /><rect
         width="59.5"
         height="82.07"
         x="-29.75"
         y="-41.029999"
         fill="none"
         rx="0"
         ry="0"
         transform="translate(239.42,71.64)"
         id="rect2" /><path
         fill="#581fb2"
         d="m 306.059,112.17 q -5.94,0 -10.83,-2.33 -4.9,-2.33 -8.43,-6.42 -3.53,-4.09 -5.48,-9.68 -1.95,-5.59 -1.95,-12.07 0,-6.47 1.87,-12.01 1.87,-5.53 5.35,-9.57 3.48,-4.04 8.43,-6.32 4.94,-2.27 11.04,-2.27 5.94,0 10.86,2.27 4.93,2.28 8.46,6.32 3.53,4.04 5.51,9.57 1.98,5.54 1.98,12.01 0,6.48 -1.9,12.07 -1.9,5.59 -5.38,9.68 -3.48,4.09 -8.45,6.42 -4.98,2.33 -11.08,2.33 m 16.64,-29.05 q 0,-4.34 -0.93,-8.51 -0.94,-4.17 -2.97,-7.46 -2.04,-3.29 -5.25,-5.32 -3.21,-2.04 -7.7,-2.04 -4.28,0 -7.38,1.77 -3.11,1.76 -5.09,4.71 -1.98,2.94 -2.91,6.68 -0.94,3.75 -0.94,7.71 0,4.33 0.94,8.5 0.93,4.18 2.94,7.44 2.01,3.26 5.19,5.27 3.18,2.01 7.68,2.01 4.22,0 7.33,-1.77 3.1,-1.76 5.13,-4.68 2.04,-2.92 3,-6.66 0.96,-3.75 0.96,-7.65"
         id="path2" /><rect
         width="53.5"
         height="60.669998"
         x="-26.75"
         y="-30.34"
         fill="none"
         rx="0"
         ry="0"
         transform="translate(306.62,82.34)"
         id="rect3" /><path
         fill="#581fb2"
         d="m 359.079,24.59 v 66.55 q 0,3.53 0.4,5.91 0.4,2.39 1.18,3.86 0.78,1.47 1.93,2.08 1.15,0.62 2.64,0.62 1.18,0 2.14,-0.14 0.97,-0.13 1.66,-0.34 0.81,-0.22 1.45,-0.48 l 3.69,6.47 q -0.43,0.43 -1.37,0.94 -0.93,0.5 -2.22,0.99 -1.28,0.48 -2.91,0.8 -1.63,0.32 -3.51,0.32 -4.81,0 -7.81,-1.77 -2.99,-1.76 -4.65,-4.81 -1.66,-3.05 -2.22,-7.09 -0.56,-4.04 -0.56,-8.64 v -53.5 l -1.07,-10.7 z"
         id="path3" /><rect
         width="26.32"
         height="87.580002"
         x="-13.16"
         y="-43.790001"
         fill="none"
         rx="0"
         ry="0"
         transform="translate(361.5,68.88)"
         id="rect4" /><path
         fill="#581fb2"
         d="m 418.999,60.97 h -8.24 q -4.92,0 -8.5,1.84 -3.59,1.85 -5.94,5.01 -2.36,3.15 -3.48,7.43 -1.12,4.28 -1.12,9.15 0,4.76 1.12,8.35 1.12,3.58 2.92,5.99 1.79,2.41 4.09,3.61 2.3,1.21 4.71,1.21 2.51,0 4.68,-0.86 2.16,-0.86 3.98,-2.14 1.82,-1.28 3.27,-2.81 1.44,-1.52 2.51,-2.86 z m 11.24,50.29 h -11.24 v -8.67 l -5.08,6.05 q -0.96,0.64 -2.09,1.28 -1.12,0.64 -2.51,1.13 -1.39,0.48 -3.08,0.8 -1.68,0.32 -3.77,0.32 -4.39,0 -8.19,-2.17 -3.79,-2.16 -6.6,-6.02 -2.81,-3.85 -4.44,-9.17 -1.63,-5.33 -1.63,-11.69 0,-6.42 2.06,-12.01 2.05,-5.59 5.85,-9.77 3.8,-4.17 9.18,-6.55 5.38,-2.38 12.01,-2.38 h 8.29 V 24.59 l 10.17,1.07 v 75.97 z"
         id="path4" /><rect
         width="48.630001"
         height="87.580002"
         x="-24.32"
         y="-43.790001"
         fill="none"
         rx="0"
         ry="0"
         transform="translate(406.42,68.88)"
         id="rect5" /><path
         fill="#581fb2"
         d="m 442.539,60.97 v -8.56 h 8.03 v -8.29 q 0,-4.55 0.99,-8.14 0.99,-3.58 3.13,-6.07 2.14,-2.49 5.48,-3.82 3.34,-1.34 8.05,-1.34 2.41,0 4.42,0.4 2,0.4 3.69,1.04 1.68,0.65 3.1,1.5 1.42,0.86 2.54,1.77 l -4.55,6.31 q -1.12,-0.8 -3.1,-1.63 -1.98,-0.83 -4.39,-0.83 -4.6,0 -7.03,2.59 -2.44,2.6 -2.44,8.75 v 7.76 h 15.52 l -1.07,8.56 h -14.18 v 50.29 h -10.16 V 60.97 Z"
         id="path5" /><rect
         width="39.43"
         height="86.510002"
         x="-19.709999"
         y="-43.259998"
         fill="none"
         rx="0"
         ry="0"
         transform="translate(462.75,68.5)"
         id="rect6" /><path
         fill="#581fb2"
         d="m 503.529,53.75 v 57.51 h -10.16 V 54.82 Z m -10.48,-12.04 v -10.7 h 10.8 v 10.7 z"
         id="path6" /><rect
         width="10.8"
         height="80.25"
         x="-5.4000001"
         y="-40.130001"
         fill="none"
         rx="0"
         ry="0"
         transform="translate(498.95,71.64)"
         id="rect7" /><path
         fill="#581fb2"
         d="m 535.629,66.11 v 45.15 h -10.16 V 52.41 l 10.16,-1.07 v 9.79 l 3.27,-5.72 q 0.96,-0.65 2.46,-1.34 1.49,-0.7 3.34,-1.26 1.85,-0.56 3.99,-0.94 2.14,-0.37 4.33,-0.37 4.23,0 7.14,1.36 2.92,1.37 4.74,3.94 1.82,2.56 2.59,6.2 0.78,3.64 0.78,8.13 v 40.13 h -10.17 V 71.13 q 0,-2.88 -0.4,-4.97 -0.4,-2.09 -1.39,-3.45 -0.99,-1.37 -2.65,-2.01 -1.66,-0.64 -4.12,-0.64 -1.82,0 -3.69,0.56 -1.87,0.56 -3.66,1.45 -1.8,0.88 -3.48,1.95 -1.69,1.07 -3.08,2.09"
         id="path7" /><rect
         width="42.799999"
         height="59.919998"
         x="-21.4"
         y="-29.959999"
         fill="none"
         rx="0"
         ry="0"
         transform="translate(547.37,81.8)"
         id="rect8" /><path
         fill="#581fb2"
         d="m 627.439,58.24 -5.3,6.05 q -2.09,-1.88 -4.95,-3.05 -2.86,-1.18 -5.91,-1.18 -4.49,0 -7.65,1.68 -3.16,1.69 -5.11,4.58 -1.95,2.89 -2.86,6.71 -0.91,3.83 -0.91,8.06 0,4.38 0.83,8.37 0.83,3.98 2.81,7.03 1.98,3.05 5.27,4.84 3.29,1.8 8.21,1.8 4.12,0 6.98,-0.97 2.86,-0.96 4.41,-2.03 l 3.86,7.54 q -3,2.04 -6.98,3.27 -3.99,1.23 -9.02,1.23 -6.69,0 -11.72,-2.65 -5.03,-2.65 -8.37,-7.06 -3.34,-4.42 -5.03,-10.17 -1.68,-5.75 -1.68,-11.9 0,-5.56 1.63,-10.78 1.63,-5.22 4.97,-9.23 3.35,-4.01 8.46,-6.45 5.11,-2.43 12.01,-2.43 4.92,0 8.8,1.52 3.88,1.53 7.25,5.22"
         id="path8" /><rect
         width="43.119999"
         height="60.669998"
         x="-21.559999"
         y="-30.34"
         fill="none"
         rx="0"
         ry="0"
         transform="translate(606.38,82.34)"
         id="rect9" /><path
         fill="#581fb2"
         d="m 653.329,66.69 v 44.57 h -10.16 v -74.9 l -1.07,-10.7 11.23,-1.07 v 35.84 l 4.76,-6.15 q 2.09,-1.18 4.98,-1.98 2.89,-0.8 6.31,-0.8 8.03,0 12.31,5.35 4.28,5.35 4.28,15.35 v 39.06 h -10.17 V 73.33 q 0,-3.59 -0.61,-6.1 -0.62,-2.52 -1.74,-4.12 -1.13,-1.61 -2.78,-2.33 -1.66,-0.72 -3.75,-0.72 -2.09,0 -4.07,0.51 -1.97,0.51 -3.74,1.39 -1.77,0.88 -3.24,2.09 -1.47,1.2 -2.54,2.64"
         id="path9" /><rect
         width="43.869999"
         height="86.669998"
         x="-21.93"
         y="-43.34"
         fill="none"
         rx="0"
         ry="0"
         transform="translate(664.53,68.43)"
         id="rect10" /></svg>
  </g>
</svg>
